HIERARCHY
ROOT lpalm
{
	OFFSET	0.000000	0.000000	0.000000
	CHANNELS	6	Xposition	Yposition	Zposition	Zrotation	Xrotation	Yrotation
	JOINT lthumbA
	{
		OFFSET	-6.570000	-2.200000	3.500000
		CHANNELS	3	Zrotation	Xrotation	Yrotation
		JOINT lthumbB
		{
			OFFSET	0.000000	0.000000	7.000000
			CHANNELS	3	Zrotation	Xrotation	Yrotation
			JOINT lthumbC
			{
				OFFSET	0.000000	0.000000	3.800000
				CHANNELS	3	Zrotation	Xrotation	Yrotation
				End Site
				{
					OFFSET	0.000000	0.000000	3.000000
				}
			}
		}
	}
	JOINT lindexA
	{
		OFFSET	-2.730000	0.000000	10.400000
		CHANNELS	3	Zrotation	Xrotation	Yrotation
		JOINT lindexB
		{
			OFFSET	0.000000	0.000000	4.600000
			CHANNELS	3	Zrotation	Xrotation	Yrotation
			JOINT lindexC
			{
				OFFSET	0.000000	0.000000	3.000000
				CHANNELS	3	Zrotation	Xrotation	Yrotation
				End Site
				{
					OFFSET	0.000000	0.000000	2.600000
				}
			}
		}
	}
	JOINT lmiddleA
	{
		OFFSET	-0.610000	0.000000	10.000000
		CHANNELS	3	Zrotation	Xrotation	Yrotation
		JOINT lmiddleB
		{
			OFFSET	0.000000	0.000000	5.100000
			CHANNELS	3	Zrotation	Xrotation	Yrotation
			JOINT lmiddleC
			{
				OFFSET	0.000000	0.000000	3.100000
				CHANNELS	3	Zrotation	Xrotation	Yrotation
				End Site
				{
					OFFSET	0.000000	0.000000	2.800000
				}
			}
		}
	}
	JOINT lringA
	{
		OFFSET	1.880000	0.000000	9.700000
		CHANNELS	3	Zrotation	Xrotation	Yrotation
		JOINT lringB
		{
			OFFSET	0.000000	0.000000	4.800000
			CHANNELS	3	Zrotation	Xrotation	Yrotation
			JOINT lringC
			{
				OFFSET	0.000000	0.000000	3.000000
				CHANNELS	3	Zrotation	Xrotation	Yrotation
				End Site
				{
					OFFSET	0.000000	0.000000	2.700000
				}
			}
		}
	}
	JOINT llittleA
	{
		OFFSET	3.540000	0.000000	8.600000
		CHANNELS	3	Zrotation	Xrotation	Yrotation
		JOINT llittleB
		{
			OFFSET	0.000000	0.000000	3.800000
			CHANNELS	3	Zrotation	Xrotation	Yrotation
			JOINT llittleC
			{
				OFFSET	0.000000	0.000000	2.300000
				CHANNELS	3	Zrotation	Xrotation	Yrotation
				End Site
				{
					OFFSET	0.000000	0.000000	2.400000
				}
			}
		}
	}
}
MOTION
Frames:	43
Frame Time:	0.013543
0.00	0.00	0.00	-0.90	25.85	1.85	-4.13	-2.08	-66.43	-15.00	0.00	0.00	0.00	0.00	4.01	0.00	73.70	-1.47	0.00	63.65	0.00	0.00	12.80	0.00	-180.00	85.81	178.53	0.00	61.55	0.00	0.00	5.45	0.00	0.00	85.92	-1.47	0.00	63.34	0.00	0.00	1.89	0.00	0.00	0.83	4.52	0.00	12.98	0.00	0.00	10.12	0.00
0.00	0.00	0.00	-0.90	25.85	1.85	-4.13	-2.08	-66.43	-15.00	0.00	0.00	0.00	0.00	4.01	0.00	73.70	-1.47	0.00	63.65	0.00	0.00	12.80	0.00	-180.00	85.81	178.53	0.00	61.55	0.00	0.00	5.45	0.00	0.00	85.92	-1.47	0.00	63.34	0.00	0.00	1.89	0.00	0.00	0.83	4.52	0.00	12.98	0.00	0.00	10.12	0.00
0.00	0.00	0.00	-0.89	25.83	1.83	-4.13	-2.07	-66.46	-15.00	0.00	0.00	0.00	0.00	3.99	0.00	73.72	-1.48	0.00	63.67	0.00	0.00	12.83	0.00	-180.00	85.78	178.52	0.00	61.53	0.00	0.00	5.45	0.00	0.00	85.96	-1.48	0.00	63.36	0.00	0.00	1.87	0.00	0.00	0.77	4.53	0.00	12.99	0.00	0.00	10.10	0.00
0.00	0.00	0.00	-0.89	25.88	1.83	-4.08	-2.07	-66.51	-15.00	0.00	0.00	0.00	0.00	3.98	0.00	73.66	-1.48	0.00	63.62	0.00	0.00	12.80	0.00	-180.00	85.81	178.52	0.00	61.50	0.00	0.00	5.48	0.00	0.00	85.90	-1.48	0.00	63.34	0.00	0.00	1.87	0.00	0.00	0.70	4.54	0.00	13.00	0.00	0.00	10.10	0.00
0.00	0.00	0.00	-0.89	25.92	1.84	-4.02	-2.07	-66.56	-15.00	0.00	0.00	0.00	0.00	3.97	0.00	73.70	-1.49	0.00	63.55	0.00	0.00	12.80	0.00	-180.00	85.81	178.51	0.00	61.45	0.00	0.00	5.45	0.00	0.00	85.89	-1.49	0.00	63.36	0.00	0.00	1.87	0.00	0.00	0.59	4.55	0.00	13.02	0.00	0.00	10.08	0.00
0.00	0.00	0.00	-0.88	26.01	1.81	-3.96	-2.08	-66.54	-15.00	0.00	0.00	0.00	0.00	3.97	0.00	73.59	-1.49	0.00	63.53	0.00	0.00	12.83	0.00	180.00	85.84	178.51	0.00	61.43	0.00	0.00	5.45	0.00	0.00	85.84	-1.49	0.00	63.36	0.00	0.00	1.86	0.00	0.00	0.50	4.53	0.00	13.00	0.00	0.00	10.10	0.00
0.00	0.00	0.00	-0.88	26.11	1.80	-3.89	-2.09	-66.51	-15.00	0.00	0.00	0.00	0.00	3.95	0.00	73.53	-1.49	0.00	63.46	0.00	0.00	12.85	0.00	-180.00	85.85	178.51	0.00	61.46	0.00	0.00	5.45	0.00	0.00	85.82	-1.49	0.00	63.39	0.00	0.00	1.87	0.00	0.00	0.38	4.52	0.00	13.04	0.00	0.00	10.10	0.00
0.00	0.00	0.00	-0.89	26.19	1.80	-3.86	-2.11	-66.45	-15.00	0.00	0.00	0.00	0.00	3.94	0.00	73.54	-1.49	0.00	63.44	0.00	0.00	12.84	0.00	180.00	85.92	178.51	0.00	61.48	0.00	0.00	5.48	0.00	0.00	85.79	-1.49	0.00	63.36	0.00	0.00	1.86	0.00	0.00	0.43	4.53	0.00	13.08	0.00	0.00	10.06	0.00
0.00	0.00	0.00	-0.89	26.21	1.80	-3.93	-2.12	-66.27	-15.00	0.00	0.00	0.00	0.00	3.95	0.00	73.51	-1.47	0.00	63.41	0.00	0.00	12.83	0.00	-180.00	85.89	178.53	0.00	61.46	0.00	0.00	5.43	0.00	0.00	85.79	-1.47	0.00	63.36	0.00	0.00	1.86	0.00	0.00	0.57	4.48	0.00	13.11	0.00	0.00	9.97	0.00
0.00	0.00	0.00	-0.88	26.15	1.80	-4.04	-2.13	-66.12	-15.00	0.00	0.00	0.00	0.00	3.95	0.00	73.58	-1.45	0.00	63.42	0.00	0.00	12.83	0.00	-180.00	85.87	178.55	0.00	61.50	0.00	0.00	5.45	0.00	0.00	85.80	-1.45	0.00	63.36	0.00	0.00	1.87	0.00	0.00	0.69	4.45	0.00	13.14	0.00	0.00	9.95	0.00
0.00	0.00	0.00	-0.88	26.09	1.81	-4.11	-2.13	-66.06	-15.00	0.00	0.00	0.00	0.00	3.94	0.00	73.63	-1.46	0.00	63.44	0.00	0.00	12.85	0.00	-180.00	85.83	178.54	0.00	61.53	0.00	0.00	5.45	0.00	0.00	85.79	-1.46	0.00	63.41	0.00	0.00	1.87	0.00	0.00	0.69	4.48	0.00	13.15	0.00	0.00	9.93	0.00
0.00	0.00	0.00	-0.88	25.97	1.80	-4.18	-2.12	-66.11	-15.00	0.00	0.00	0.00	0.00	3.92	0.00	73.67	-1.47	0.00	63.48	0.00	0.00	12.85	0.00	-180.00	85.77	178.53	0.00	61.57	0.00	0.00	5.45	0.00	0.00	85.89	-1.47	0.00	63.46	0.00	0.00	1.89	0.00	0.00	0.71	4.50	0.00	13.19	0.00	0.00	9.91	0.00
0.00	0.00	0.00	-0.88	25.90	1.81	-4.23	-2.11	-66.12	-15.00	0.00	0.00	0.00	0.00	3.90	0.00	73.71	-1.47	0.00	63.51	0.00	0.00	12.84	0.00	-180.00	85.73	178.53	0.00	61.65	0.00	0.00	5.45	0.00	0.00	85.94	-1.47	0.00	63.53	0.00	0.00	1.87	0.00	0.00	0.70	4.50	0.00	13.25	0.00	0.00	9.93	0.00
0.00	0.00	0.00	-0.87	25.94	1.80	-4.21	-2.12	-66.09	-15.00	0.00	0.00	0.00	0.00	3.90	0.00	73.69	-1.46	0.00	63.58	0.00	0.00	12.85	0.00	-180.00	85.73	178.54	0.00	61.67	0.00	0.00	5.43	0.00	0.00	85.88	-1.46	0.00	63.53	0.00	0.00	1.89	0.00	0.00	0.73	4.48	0.00	13.27	0.00	0.00	9.91	0.00
0.00	0.00	0.00	-0.86	25.99	1.77	-4.18	-2.12	-66.07	-15.00	0.00	0.00	0.00	0.00	3.90	0.00	73.68	-1.44	0.00	63.55	0.00	0.00	12.83	0.00	-180.00	85.75	178.56	0.00	61.67	0.00	0.00	5.45	0.00	0.00	85.94	-1.44	0.00	63.50	0.00	0.00	1.87	0.00	0.00	0.78	4.43	0.00	13.27	0.00	0.00	9.84	0.00
0.00	0.00	0.00	-0.86	26.09	1.76	-4.14	-2.14	-65.99	-15.00	0.00	0.00	0.00	0.00	3.92	0.00	73.62	-1.43	0.00	63.44	0.00	0.00	12.83	0.00	-180.00	85.81	178.57	0.00	61.65	0.00	0.00	5.45	0.00	0.00	85.85	-1.43	0.00	63.53	0.00	0.00	1.87	0.00	0.00	0.81	4.39	0.00	13.33	0.00	0.00	9.78	0.00
0.00	0.00	0.00	-0.87	26.11	1.79	-4.16	-2.14	-65.92	-15.00	0.00	0.00	0.00	0.00	3.91	0.00	73.65	-1.43	0.00	63.44	0.00	0.00	12.83	0.00	180.00	85.79	178.57	0.00	61.70	0.00	0.00	5.45	0.00	0.00	85.88	-1.43	0.00	63.55	0.00	0.00	1.87	0.00	0.00	0.77	4.38	0.00	13.38	0.00	0.00	9.72	0.00
0.00	0.00	0.00	-0.88	26.09	1.79	-4.19	-2.15	-65.88	-15.00	0.00	0.00	0.00	0.00	3.91	0.00	73.67	-1.42	0.00	63.37	0.00	0.00	12.83	0.00	-180.00	85.76	178.58	0.00	61.72	0.00	0.00	5.45	0.00	0.00	85.90	-1.42	0.00	63.55	0.00	0.00	1.87	0.00	0.00	0.75	4.36	0.00	13.52	0.00	0.00	9.67	0.00
0.00	0.00	0.00	-0.87	26.15	1.77	-4.15	-2.15	-65.88	-15.00	0.00	0.00	0.00	0.00	3.90	0.00	73.60	-1.39	0.00	63.37	0.00	0.00	12.80	0.00	-180.00	85.77	178.61	0.00	61.77	0.00	0.00	5.45	0.00	0.00	85.85	-1.39	0.00	63.64	0.00	0.00	1.89	0.00	0.00	0.74	4.28	0.00	13.63	0.00	0.00	9.61	0.00
0.00	0.00	0.00	-0.85	26.12	1.74	-4.17	-2.15	-65.87	-15.00	0.00	0.00	0.00	0.00	3.90	0.00	73.64	-1.37	0.00	63.42	0.00	0.00	12.83	0.00	180.00	85.70	178.63	0.00	61.77	0.00	0.00	5.43	0.00	0.00	85.77	-1.37	0.00	63.64	0.00	0.00	1.87	0.00	0.00	0.79	4.21	0.00	13.76	0.00	0.00	9.50	0.00
0.00	0.00	0.00	-0.84	26.07	1.73	-4.21	-2.15	-65.86	-15.00	0.00	0.00	0.00	0.00	3.90	0.00	73.74	-1.32	0.00	63.44	0.00	0.00	12.83	0.00	180.00	85.63	178.68	0.00	61.84	0.00	0.00	5.40	0.00	0.00	85.93	-1.32	0.00	63.74	0.00	0.00	1.87	0.00	0.00	0.96	4.09	0.00	13.86	0.00	0.00	9.39	0.00
0.00	0.00	0.00	-0.83	26.05	1.69	-4.29	-2.15	-65.73	-15.00	0.00	0.00	0.00	0.00	3.87	0.00	73.76	-1.28	0.00	63.51	0.00	0.00	12.84	0.00	180.00	85.57	178.72	0.00	61.91	0.00	0.00	5.43	0.00	0.00	85.99	-1.28	0.00	63.79	0.00	0.00	1.89	0.00	0.00	1.09	3.96	0.00	13.95	0.00	0.00	9.28	0.00
0.00	0.00	0.00	-0.83	26.09	1.69	-4.29	-2.16	-65.67	-15.00	0.00	0.00	0.00	0.00	3.89	0.00	73.81	-1.25	0.00	63.51	0.00	0.00	12.80	0.00	180.00	85.55	178.75	0.00	61.92	0.00	0.00	5.40	0.00	0.00	85.96	-1.25	0.00	63.83	0.00	0.00	1.89	0.00	0.00	1.16	3.87	0.00	14.01	0.00	0.00	9.20	0.00
0.00	0.00	0.00	-0.81	26.12	1.64	-4.29	-2.17	-65.61	-15.00	0.00	0.00	0.00	0.00	3.89	0.00	73.80	-1.23	0.00	63.42	0.00	0.00	12.77	0.00	-180.00	85.55	178.77	0.00	62.01	0.00	0.00	5.43	0.00	0.00	86.02	-1.23	0.00	63.90	0.00	0.00	1.87	0.00	0.00	1.19	3.81	0.00	14.08	0.00	0.00	9.11	0.00
0.00	0.00	0.00	-0.81	26.21	1.65	-4.27	-2.19	-65.50	-15.00	0.00	0.00	0.00	0.00	3.91	0.00	73.78	-1.22	0.00	63.23	0.00	0.00	12.69	0.00	-180.00	85.62	178.78	0.00	61.99	0.00	0.00	5.43	0.00	0.00	86.00	-1.22	0.00	63.88	0.00	0.00	1.91	0.00	0.00	1.15	3.78	0.00	14.10	0.00	0.00	9.09	0.00
0.00	0.00	0.00	-0.81	26.30	1.64	-4.26	-2.20	-65.39	-15.00	0.00	0.00	0.00	0.00	3.91	0.00	73.70	-1.23	0.00	62.95	0.00	0.00	12.61	0.00	-180.00	85.69	178.77	0.00	61.99	0.00	0.00	5.43	0.00	0.00	85.92	-1.23	0.00	63.86	0.00	0.00	1.86	0.00	0.00	1.11	3.81	0.00	14.12	0.00	0.00	9.07	0.00
0.00	0.00	0.00	-0.80	26.34	1.62	-4.28	-2.22	-65.26	-15.00	0.00	0.00	0.00	0.00	3.89	0.00	73.59	-1.20	0.00	62.61	0.00	0.00	12.52	0.00	-180.00	85.85	178.80	0.00	61.96	0.00	0.00	5.45	0.00	0.00	85.73	-1.20	0.00	63.88	0.00	0.00	1.89	0.00	0.00	1.20	3.74	0.00	14.14	0.00	0.00	8.98	0.00
0.00	0.00	0.00	-0.77	26.39	1.54	-4.35	-2.24	-65.01	-15.00	0.00	0.00	0.00	0.00	3.87	0.00	73.40	-1.13	0.00	62.09	0.00	0.00	12.46	0.00	180.00	86.15	178.87	0.00	61.96	0.00	0.00	5.43	0.00	0.00	85.52	-1.13	0.00	63.76	0.00	0.00	1.87	0.00	0.00	1.44	3.54	0.00	14.24	0.00	0.00	8.77	0.00
0.00	0.00	0.00	-0.69	26.48	1.38	-4.44	-2.28	-64.66	-15.00	0.00	0.00	0.00	0.00	3.87	0.00	73.13	-0.97	0.00	61.62	0.00	0.00	12.39	0.00	180.00	86.52	179.03	0.00	61.94	0.00	0.00	5.43	0.00	0.00	85.29	-0.97	0.00	63.76	0.00	0.00	1.89	0.00	0.00	1.97	3.08	0.00	14.46	0.00	0.00	8.42	0.00
0.00	0.00	0.00	-0.54	26.61	1.09	-4.49	-2.32	-64.34	-15.00	0.00	0.00	0.00	0.00	3.89	0.00	72.71	-0.72	0.00	61.13	0.00	0.00	12.38	0.00	-180.00	87.05	179.28	0.00	61.91	0.00	0.00	5.45	0.00	0.00	84.83	-0.72	0.00	63.74	0.00	0.00	1.87	0.00	0.00	2.89	2.36	0.00	14.86	0.00	0.00	7.78	0.00
0.00	0.00	0.00	-0.37	26.84	0.73	-4.47	-2.35	-64.02	-15.00	0.00	0.00	0.00	0.00	3.87	0.00	72.09	-0.47	0.00	60.47	0.00	0.00	12.29	0.00	-180.00	87.82	179.53	0.00	61.70	0.00	0.00	5.45	0.00	0.00	84.08	-0.47	0.00	63.74	0.00	0.00	1.87	0.00	0.00	3.91	1.59	0.00	15.31	0.00	0.00	7.09	0.00
0.00	0.00	0.00	-0.18	26.92	0.35	-4.49	-2.37	-63.87	-15.00	0.00	0.00	0.00	0.00	3.78	0.00	71.16	-0.31	0.00	59.46	0.00	0.00	12.23	0.00	-180.00	89.14	179.69	0.00	61.19	0.00	0.00	5.51	0.00	0.00	83.19	-0.31	0.00	63.41	0.00	0.00	1.86	0.00	0.00	4.67	1.09	0.00	15.85	0.00	0.00	6.44	0.00
0.00	0.00	0.00	-0.07	26.74	0.14	-4.58	-2.34	-63.95	-15.00	0.00	0.00	0.00	0.00	3.69	0.00	69.51	-0.32	0.00	57.85	0.00	0.00	12.11	0.00	0.00	89.10	-0.32	0.00	59.93	0.00	0.00	5.61	0.00	0.00	81.97	-0.32	0.00	62.64	0.00	0.00	1.91	0.00	0.00	4.80	1.11	0.00	16.16	0.00	0.00	5.84	0.00
0.00	0.00	0.00	-0.07	26.74	0.14	-4.58	-2.34	-63.95	-15.00	0.00	0.00	0.00	0.00	3.69	0.00	69.51	-0.32	0.00	57.85	0.00	0.00	12.11	0.00	0.00	89.10	-0.32	0.00	59.93	0.00	0.00	5.61	0.00	0.00	81.97	-0.32	0.00	62.64	0.00	0.00	1.91	0.00	0.00	4.80	1.11	0.00	16.16	0.00	0.00	5.84	0.00
0.00	0.00	0.00	0.04	26.32	-0.09	-4.99	-2.34	-63.72	-15.00	0.00	0.00	0.00	0.00	3.57	0.00	67.57	-0.37	0.00	55.35	0.00	0.00	11.83	0.00	0.00	86.89	-0.37	0.00	57.88	0.00	0.00	5.71	0.00	0.00	80.12	-0.37	0.00	61.44	0.00	0.00	1.99	0.00	0.00	5.40	1.31	0.00	16.33	0.00	0.00	5.19	0.00
0.00	0.00	0.00	0.10	25.91	-0.20	-5.49	-2.37	-63.24	-15.00	0.00	0.00	0.00	0.00	3.51	0.00	64.73	-0.45	0.00	52.24	0.00	0.00	11.26	0.00	0.00	83.76	-0.45	0.00	55.63	0.00	0.00	5.91	0.00	0.00	77.45	-0.45	0.00	59.43	0.00	0.00	2.01	0.00	0.00	6.24	1.64	0.00	16.56	0.00	0.00	4.48	0.00
0.00	0.00	0.00	0.15	25.64	-0.31	-6.22	-2.51	-62.02	-15.00	0.00	0.00	0.00	0.00	3.58	0.00	60.83	-0.53	0.00	49.14	0.00	0.00	10.53	0.00	0.00	80.22	-0.53	0.00	53.55	0.00	0.00	6.09	0.00	0.00	74.22	-0.53	0.00	56.24	0.00	0.00	2.07	0.00	0.00	7.38	2.01	0.00	16.90	0.00	0.00	3.25	0.00
0.00	0.00	0.00	0.17	25.52	-0.35	-7.13	-2.77	-60.04	-15.00	0.00	0.00	0.00	0.00	3.86	0.00	56.85	-0.62	0.00	45.93	0.00	0.00	9.67	0.00	0.00	76.60	-0.62	0.00	51.81	0.00	0.00	6.32	0.00	0.00	70.37	-0.62	0.00	52.25	0.00	0.00	2.15	0.00	0.00	8.69	2.46	0.00	17.58	0.00	0.00	1.85	0.00
0.00	0.00	0.00	0.20	25.26	-0.43	-8.37	-3.18	-57.44	-15.00	0.00	0.00	0.00	0.00	4.29	0.00	52.47	-0.67	0.00	42.77	0.00	0.00	8.86	0.00	0.00	72.86	-0.67	0.00	50.47	0.00	0.00	6.62	0.00	0.00	66.09	-0.67	0.00	47.66	0.00	0.00	2.19	0.00	0.00	10.27	2.81	0.00	18.67	0.00	0.00	0.45	0.00
0.00	0.00	0.00	0.29	25.08	-0.62	-9.89	-3.82	-53.89	-15.00	0.00	0.00	0.00	0.00	4.92	0.00	47.60	-1.08	0.00	40.23	0.00	0.00	8.20	0.00	0.00	68.80	-0.57	0.00	49.39	0.00	0.00	6.99	0.00	0.00	62.03	-0.57	0.00	44.31	0.00	0.00	2.48	0.00	0.00	11.86	2.54	0.00	19.88	0.00	0.00	0.00	0.00
0.00	0.00	0.00	0.32	24.80	-0.69	-11.15	-4.44	-50.95	-15.00	0.00	0.00	0.00	0.00	5.84	0.00	42.40	-1.68	0.00	38.01	0.00	0.00	7.51	0.00	0.00	64.28	-0.52	0.00	48.34	0.00	0.00	7.33	0.00	0.00	59.06	-0.52	0.00	43.35	0.00	0.00	3.00	0.00	0.00	13.21	2.53	0.00	21.02	0.00	0.00	0.00	0.00
0.00	0.00	0.00	0.34	24.40	-0.76	-12.23	-5.03	-48.46	-15.00	0.00	0.00	0.00	0.00	6.81	0.00	36.94	-2.46	0.00	35.30	0.00	0.00	6.70	0.00	0.00	59.31	-0.25	0.00	47.01	0.00	0.00	7.72	0.00	0.00	56.49	-0.31	0.00	43.42	0.00	0.00	3.38	0.00	0.00	14.46	2.70	0.00	22.13	0.00	0.00	0.00	0.00
0.00	0.00	0.00	0.37	24.08	-0.84	-13.29	-5.72	-45.74	-15.00	0.00	0.00	0.00	0.00	7.66	0.00	31.14	-3.60	0.00	32.41	0.00	0.00	5.85	0.00	0.00	53.41	1.27	0.00	45.06	0.00	0.00	7.83	0.00	0.00	53.45	0.76	0.00	43.72	0.00	0.00	3.62	0.00	0.00	15.61	3.07	0.00	23.27	0.00	0.00	0.00	0.00
